<svg width="221" height="97" viewBox="0 0 221 97" fill="none" xmlns="http://www.w3.org/2000/svg">
<g filter="url(#filter0_d_2207_20)">
<ellipse cx="110.605" cy="84.0747" rx="105.853" ry="6.92508" fill="#C4DBFA"/>
</g>
<path d="M55.167 85.6941V29.1754H165.835V85.6941H55.167Z" fill="#7BC1FE"/>
<path d="M46.9277 29.2013H55.2048L165.824 29.1782H173.154L165.915 0.839111H55.2048L46.9277 29.2013Z" fill="#B9E2FB"/>
<path d="M55.7472 1.4248L33.3633 22.7948" stroke="#B9E2FB" stroke-width="3"/>
<path d="M165.355 1.42346L187.739 22.7935" stroke="#B9E2FB" stroke-width="3"/>
<rect x="80.3047" y="36.4434" width="59.798" height="34.5607" rx="3" fill="white"/>
<circle cx="96.7919" cy="48.2469" r="2.44625" fill="#5C85B9"/>
<circle cx="121.007" cy="48.2469" r="2.44625" fill="#5C85B9"/>
<path d="M104.316 64.7519C106.67 61.2218 111.872 56.6388 116.455 61.7172" stroke="#5C85B9" stroke-width="3" stroke-linecap="round"/>
<rect x="55.2402" y="36.5345" width="10.9477" height="5.94978" rx="2.97489" fill="#48B1F8"/>
<rect x="154.768" y="36.5345" width="10.9477" height="5.94978" rx="2.97489" fill="#48B1F8"/>
<rect x="55.2402" y="50.6932" width="10.9477" height="5.94978" rx="2.97489" fill="#48B1F8"/>
<rect x="154.768" y="50.6932" width="10.9477" height="5.94978" rx="2.97489" fill="#48B1F8"/>
<rect x="55.2402" y="64.8518" width="10.9477" height="5.94978" rx="2.97489" fill="#48B1F8"/>
<rect x="154.768" y="64.8518" width="10.9477" height="5.94978" rx="2.97489" fill="#48B1F8"/>
<defs>
<filter id="filter0_d_2207_20" x="0.751953" y="75.1497" width="219.705" height="21.8502" filterUnits="userSpaceOnUse" color-interpolation-filters="sRGB">
<feFlood flood-opacity="0" result="BackgroundImageFix"/>
<feColorMatrix in="SourceAlpha" type="matrix" values="0 0 0 0 0 0 0 0 0 0 0 0 0 0 0 0 0 0 127 0" result="hardAlpha"/>
<feOffset dy="2"/>
<feGaussianBlur stdDeviation="2"/>
<feComposite in2="hardAlpha" operator="out"/>
<feColorMatrix type="matrix" values="0 0 0 0 0 0 0 0 0 0 0 0 0 0 0 0 0 0 0.13 0"/>
<feBlend mode="normal" in2="BackgroundImageFix" result="effect1_dropShadow_2207_20"/>
<feBlend mode="normal" in="SourceGraphic" in2="effect1_dropShadow_2207_20" result="shape"/>
</filter>
</defs>
</svg>
