<svg width="19" height="19" viewBox="0 0 19 19" fill="none" xmlns="http://www.w3.org/2000/svg">
<path d="M9.1438 2.44824C5.0083 2.44824 1.6438 5.81274 1.6438 9.94824C1.6438 14.0837 5.0083 17.4482 9.1438 17.4482C13.2793 17.4482 16.6438 14.0837 16.6438 9.94824C16.6438 5.81274 13.2793 2.44824 9.1438 2.44824ZM9.1438 15.9482C5.83555 15.9482 3.1438 13.2565 3.1438 9.94824C3.1438 6.63999 5.83555 3.94824 9.1438 3.94824C12.452 3.94824 15.1438 6.63999 15.1438 9.94824C15.1438 13.2565 12.452 15.9482 9.1438 15.9482Z" fill="#636363"/>
<path d="M9.8938 6.19824H8.3938V10.2587L10.8635 12.7285L11.924 11.668L9.8938 9.63774V6.19824Z" fill="#636363"/>
</svg>
