<svg width="34" height="40" viewBox="0 0 34 40" fill="none" xmlns="http://www.w3.org/2000/svg">
<path d="M33.1582 36.273L31.5333 15.153C31.4191 13.662 30.1578 12.4935 28.6622 12.4935H24.6802V8.65344C24.6802 4.41898 21.2349 0.973267 17 0.973267C12.7655 0.973267 9.31982 4.41855 9.31982 8.65344V12.4935H5.33779C3.84217 12.4935 2.58054 13.6617 2.46637 15.1526L0.84148 36.2726C0.779873 37.0699 1.05643 37.8634 1.59985 38.4503C2.14361 39.0376 2.91334 39.3737 3.71323 39.3737H30.2864C31.0859 39.3737 31.8563 39.0372 32.3994 38.4506C32.9418 37.8639 33.2194 37.0701 33.1578 36.2729L33.1582 36.273ZM11.2402 8.65412C11.2402 5.47798 13.824 2.89421 17.0001 2.89421C20.1761 2.89421 22.76 5.47807 22.76 8.65412V12.4942L11.24 12.4939L11.2402 8.65412ZM30.9913 37.1464C30.8078 37.3446 30.5574 37.4541 30.2868 37.4541H3.7137C3.4435 37.4541 3.19305 37.3446 3.00889 37.1464C2.82508 36.9482 2.73535 36.6904 2.75644 36.4205L4.38133 15.3005C4.4195 14.803 4.84003 14.4139 5.33824 14.4139H9.32027V19.2139C9.32027 19.7439 9.75051 20.1738 10.2802 20.1738C10.8102 20.1738 11.2401 19.7436 11.2401 19.2139L11.2404 14.4139H22.7604V19.2139C22.7604 19.7439 23.1907 20.1738 23.7203 20.1738C24.2504 20.1738 24.6803 19.7436 24.6803 19.2139L24.6806 14.4139H28.6626C29.1615 14.4139 29.5817 14.8033 29.6199 15.3005L31.2448 36.4205C31.2652 36.6904 31.1755 36.9475 30.9916 37.1464H30.9913Z" fill="#6FAC2F"/>
</svg>
