<svg width="12" height="14" viewBox="0 0 12 14" fill="none" xmlns="http://www.w3.org/2000/svg">
<path d="M5.93591 13.8536C4.98862 13.0456 4.11056 12.1597 3.31091 11.2053C2.11091 9.77208 0.685914 7.63758 0.685914 5.60358C0.685393 4.56481 0.993045 3.54922 1.56993 2.68535C2.14682 1.82149 2.96702 1.14818 3.92671 0.750633C4.88641 0.353087 5.94247 0.249177 6.96125 0.452053C7.98003 0.65493 8.91572 1.15547 9.64991 1.89033C10.1387 2.37698 10.5262 2.95574 10.7898 3.59311C11.0535 4.23049 11.1881 4.91383 11.1859 5.60358C11.1859 7.63758 9.76091 9.77208 8.56091 11.2053C7.76127 12.1597 6.88321 13.0456 5.93591 13.8536ZM5.93591 3.35358C5.33918 3.35358 4.76688 3.59064 4.34492 4.01259C3.92297 4.43455 3.68591 5.00685 3.68591 5.60358C3.68591 6.20032 3.92297 6.77262 4.34492 7.19458C4.76688 7.61653 5.33918 7.85359 5.93591 7.85359C6.53265 7.85359 7.10495 7.61653 7.5269 7.19458C7.94886 6.77262 8.18591 6.20032 8.18591 5.60358C8.18591 5.00685 7.94886 4.43455 7.5269 4.01259C7.10495 3.59064 6.53265 3.35358 5.93591 3.35358Z" fill="#636363"/>
</svg>
