<svg width="14" height="16" viewBox="0 0 14 16" fill="none" xmlns="http://www.w3.org/2000/svg">
<path d="M13.5715 1.85276H10.2745C10.7085 2.24476 11.0445 2.72776 11.2825 3.30176H13.5715V4.77176H11.5975C11.6115 4.86976 11.6185 5.00976 11.6185 5.19176C11.6185 6.29776 11.3315 7.23576 10.7575 8.00576C10.1975 8.76176 9.39947 9.32876 8.36347 9.70676L11.8915 15.0828H8.95147L5.73847 10.1688H5.38147H1.43347V7.85876H5.21347C6.45947 7.85876 7.37647 7.60676 7.96447 7.10276C8.56647 6.59876 8.86747 5.91976 8.86747 5.06576V4.77176H0.194473V3.30176H8.42647C8.13247 2.82576 7.69847 2.46176 7.12447 2.20976C6.56447 1.95776 5.86447 1.83876 5.02447 1.85276H0.194473V0.382763H13.5715V1.85276Z" fill="#A6A4A1"/>
</svg>
