<svg width="23" height="21" viewBox="0 0 23 21" fill="none" xmlns="http://www.w3.org/2000/svg">
<path d="M3.49153 5.86566H12.3498C12.5888 5.86566 12.7818 5.67205 12.7818 5.4337C12.7818 5.19519 12.5886 5.00174 12.3498 5.00174L3.49153 5.00159C3.25302 5.00159 3.05957 5.1952 3.05957 5.43355C3.05957 5.67206 3.25273 5.86566 3.49153 5.86566V5.86566Z" fill="#646464"/>
<path d="M9.92062 7.57434H3.49153C3.25302 7.57434 3.05957 7.76795 3.05957 8.0063C3.05957 8.24481 3.25318 8.43826 3.49153 8.43826H9.921C10.1595 8.43826 10.353 8.24465 10.353 8.0063C10.353 7.76794 10.1595 7.57434 9.92054 7.57434H9.92062Z" fill="#646464"/>
<path d="M3.49153 11.0108H7.58705C7.82556 11.0108 8.01901 10.8172 8.01901 10.5788C8.01901 10.3403 7.8254 10.1469 7.58705 10.1469H3.49153C3.25302 10.1469 3.05957 10.3405 3.05957 10.5788C3.05957 10.8172 3.25273 11.0108 3.49153 11.0108Z" fill="#646464"/>
<path d="M22.0066 2.512L20.4246 0.929532C20.2557 0.760631 19.9827 0.760631 19.8137 0.929532L16.1175 4.6244V3.00363C16.1175 2.76512 15.9244 2.57167 15.6856 2.57167H0.965164C0.726654 2.57167 0.533203 2.76528 0.533203 3.00363V19.582C0.533203 19.821 0.726812 20.014 0.965164 20.014H15.6856C15.9245 20.014 16.1175 19.8208 16.1175 19.582V9.01152L22.0066 3.1232C22.1755 2.9543 22.1755 2.68083 22.0066 2.51223V2.512ZM15.2535 19.1502H1.39713V3.43579H15.2535V5.48775L11.5578 9.18216C11.5034 9.23655 11.4645 9.3048 11.4451 9.37954L10.8916 11.518C10.8537 11.6665 10.8965 11.8238 11.0043 11.9318C11.0865 12.014 11.1966 12.0584 11.3098 12.0584C11.3456 12.0584 11.3824 12.0536 11.4182 12.0445L13.554 11.4907C13.6287 11.4713 13.6965 11.4324 13.7509 11.378L15.2534 9.87552L15.2535 19.1502ZM15.381 8.52683L15.3796 8.52819L13.2236 10.6838L11.912 11.0237L12.2519 9.71003L15.987 5.97586L15.9935 5.96938L20.1191 1.84571L21.0902 2.81724L15.381 8.52683Z" fill="#646464"/>
<path d="M8.96713 12.7222H3.49153C3.25302 12.7222 3.05957 12.9153 3.05957 13.1541C3.05957 13.3931 3.25318 13.5861 3.49153 13.5861H8.96752C9.20603 13.5861 9.39948 13.3929 9.39948 13.1541C9.39948 12.9152 9.20602 12.7222 8.96705 12.7222H8.96713Z" fill="#646464"/>
</svg>
