<svg width="16" height="30" viewBox="0 0 16 30" fill="none" xmlns="http://www.w3.org/2000/svg">
<path d="M15.4882 1.15568C15.7063 1.37893 15.8284 1.67862 15.8284 1.99068C15.8284 2.30275 15.7063 2.60244 15.4882 2.82568L3.30574 15.3232L15.4882 27.8182C15.7063 28.0414 15.8284 28.3411 15.8284 28.6532C15.8284 28.9653 15.7063 29.2649 15.4882 29.4882C15.3822 29.597 15.2555 29.6836 15.1155 29.7426C14.9756 29.8017 14.8252 29.8322 14.6732 29.8322C14.5213 29.8322 14.3709 29.8017 14.2309 29.7426C14.091 29.6836 13.9642 29.597 13.8582 29.4882L0.903239 16.1957C0.675704 15.9622 0.54836 15.6492 0.54836 15.3232C0.54836 14.9972 0.675704 14.6841 0.903239 14.4507L13.8582 1.15818C13.9642 1.04933 14.091 0.962804 14.2309 0.903725C14.3709 0.844647 14.5213 0.814209 14.6732 0.814209C14.8252 0.814209 14.9756 0.844647 15.1155 0.903725C15.2555 0.962804 15.3822 1.04933 15.4882 1.15818V1.15568Z" fill="#8A8A8A"/>
</svg>
