<svg width="48" height="69" viewBox="0 0 48 69" fill="none" xmlns="http://www.w3.org/2000/svg">
<path d="M0.14209 23.8244C0.14209 42.0586 23.6421 68.688 23.6421 68.688C23.6421 68.688 47.1421 42.0579 47.1421 23.8244C47.1421 15.4285 42.6633 7.67043 35.3925 3.47171C28.121 -0.726246 19.1634 -0.726246 11.8925 3.47171C4.62178 7.66966 0.142852 15.4277 0.142852 23.8244H0.14209ZM25.3836 10.6747C26.7933 7.26738 26.2807 6.64745 25.8746 4.52158C27.2315 6.65775 28.0108 7.51249 26.6436 10.9311C25.7546 12.7253 25.7546 14.8309 26.6436 16.6252C25.8806 15.8615 25.3545 14.8929 25.131 13.8371C24.9075 12.7805 24.9946 11.6822 25.3836 10.6749L25.3836 10.6747ZM19.2305 12.8109C20.6298 9.41385 20.1172 8.78362 19.7111 6.669C21.0784 8.80518 21.8473 9.64942 20.48 13.0785H20.4808C19.6023 14.8749 19.6023 16.9754 20.4808 18.7719C19.7163 18.0089 19.191 17.0403 18.9689 15.983C18.7476 14.9264 18.8378 13.8281 19.2305 12.8223L19.2305 12.8109ZM21.6984 21.0568V21.0576C21.6984 19.9839 22.5687 19.1137 23.6423 19.1137C24.7159 19.1137 25.5862 19.984 25.5862 21.0576C27.5003 21.4517 29.2529 22.4085 30.6202 23.8055C31.9867 25.2026 32.9047 26.9759 33.2555 28.8982H14.0283C14.3814 26.9774 15.3002 25.2063 16.6667 23.8114C18.0332 22.4166 19.785 21.4614 21.6976 21.0679L21.6984 21.0568ZM12.5656 32.0494C12.5656 31.4123 13.082 30.8952 13.719 30.8952H33.5662C34.2033 30.8952 34.7197 31.4123 34.7197 32.0494V33.3526C34.7197 33.9896 34.2033 34.506 33.5662 34.506H13.719C13.082 34.506 12.5656 33.9896 12.5656 33.3526V32.0494Z" fill="#A2C760"/>
</svg>
