<svg width="16" height="30" viewBox="0 0 16 30" fill="none" xmlns="http://www.w3.org/2000/svg">
<path d="M0.888473 1.15568C0.670417 1.37893 0.54834 1.67862 0.54834 1.99068C0.54834 2.30275 0.670417 2.60244 0.888473 2.82568L13.071 15.3232L0.888473 27.8182C0.670417 28.0414 0.54834 28.3411 0.54834 28.6532C0.54834 28.9653 0.670417 29.2649 0.888473 29.4882C0.994463 29.597 1.12119 29.6836 1.26116 29.7426C1.40114 29.8017 1.55154 29.8322 1.70347 29.8322C1.85541 29.8322 2.0058 29.8017 2.14578 29.7426C2.28576 29.6836 2.41248 29.597 2.51847 29.4882L15.4735 16.1957C15.701 15.9622 15.8283 15.6492 15.8283 15.3232C15.8283 14.9972 15.701 14.6841 15.4735 14.4507L2.51847 1.15818C2.41248 1.04933 2.28576 0.962804 2.14578 0.903725C2.0058 0.844647 1.85541 0.814209 1.70347 0.814209C1.55154 0.814209 1.40114 0.844647 1.26116 0.903725C1.12119 0.962804 0.994463 1.04933 0.888473 1.15818V1.15568Z" fill="#8A8A8A"/>
</svg>
