<svg width="20" height="21" viewBox="0 0 20 21" fill="none" xmlns="http://www.w3.org/2000/svg">
<path fill-rule="evenodd" clip-rule="evenodd" d="M14.5833 17.5031C15.1358 17.5031 15.6657 17.2836 16.0564 16.8929C16.4471 16.5022 16.6666 15.9723 16.6666 15.4197C16.6666 14.8672 16.4471 14.3373 16.0564 13.9466C15.6657 13.5559 15.1358 13.3364 14.5833 13.3364C14.0308 13.3364 13.5009 13.5559 13.1102 13.9466C12.7195 14.3373 12.5 14.8672 12.5 15.4197C12.5 15.9723 12.7195 16.5022 13.1102 16.8929C13.5009 17.2836 14.0308 17.5031 14.5833 17.5031ZM14.5833 18.3364C15.3568 18.3364 16.0987 18.0291 16.6457 17.4821C17.1927 16.9351 17.5 16.1933 17.5 15.4197C17.5 14.6462 17.1927 13.9043 16.6457 13.3573C16.0987 12.8103 15.3568 12.5031 14.5833 12.5031C13.8097 12.5031 13.0679 12.8103 12.5209 13.3573C11.9739 13.9043 11.6666 14.6462 11.6666 15.4197C11.6666 16.1933 11.9739 16.9351 12.5209 17.4821C13.0679 18.0291 13.8097 18.3364 14.5833 18.3364Z" fill="#636363"/>
<path fill-rule="evenodd" clip-rule="evenodd" d="M14.5833 13.9614C14.6938 13.9614 14.7998 14.0053 14.8779 14.0835C14.9561 14.1616 15 14.2676 15 14.3781V15.2473L15.2945 15.5418C15.3704 15.6204 15.4124 15.7257 15.4115 15.8349C15.4105 15.9442 15.3667 16.0487 15.2895 16.1259C15.2122 16.2032 15.1077 16.247 14.9985 16.248C14.8892 16.2489 14.784 16.2069 14.7054 16.131L14.1666 15.5923V14.3781C14.1666 14.2676 14.2105 14.1616 14.2887 14.0835C14.3668 14.0053 14.4728 13.9614 14.5833 13.9614ZM5.83329 10.4198H4.99996V11.2531H5.83329V10.4198ZM4.99996 9.58643C4.77895 9.58643 4.56698 9.67422 4.4107 9.8305C4.25442 9.98678 4.16663 10.1987 4.16663 10.4198V11.2531C4.16663 11.4741 4.25442 11.6861 4.4107 11.8423C4.56698 11.9986 4.77895 12.0864 4.99996 12.0864H5.83329C6.05431 12.0864 6.26627 11.9986 6.42255 11.8423C6.57883 11.6861 6.66663 11.4741 6.66663 11.2531V10.4198C6.66663 10.1987 6.57883 9.98678 6.42255 9.8305C6.26627 9.67422 6.05431 9.58643 5.83329 9.58643H4.99996ZM9.16663 10.4198H8.33329V11.2531H9.16663V10.4198ZM8.33329 9.58643C8.11228 9.58643 7.90032 9.67422 7.74404 9.8305C7.58776 9.98678 7.49996 10.1987 7.49996 10.4198V11.2531C7.49996 11.4741 7.58776 11.6861 7.74404 11.8423C7.90032 11.9986 8.11228 12.0864 8.33329 12.0864H9.16663C9.38764 12.0864 9.5996 11.9986 9.75588 11.8423C9.91216 11.6861 9.99996 11.4741 9.99996 11.2531V10.4198C9.99996 10.1987 9.91216 9.98678 9.75588 9.8305C9.5996 9.67422 9.38764 9.58643 9.16663 9.58643H8.33329ZM12.5 10.4198H11.6666V11.2531H12.5V10.4198ZM11.6666 9.58643C11.4456 9.58643 11.2337 9.67422 11.0774 9.8305C10.9211 9.98678 10.8333 10.1987 10.8333 10.4198V11.2531C10.8333 11.4741 10.9211 11.6861 11.0774 11.8423C11.2337 11.9986 11.4456 12.0864 11.6666 12.0864H12.5C12.721 12.0864 12.9329 11.9986 13.0892 11.8423C13.2455 11.6861 13.3333 11.4741 13.3333 11.2531V10.4198C13.3333 10.1987 13.2455 9.98678 13.0892 9.8305C12.9329 9.67422 12.721 9.58643 12.5 9.58643H11.6666ZM5.83329 13.7531H4.99996V14.5864H5.83329V13.7531ZM4.99996 12.9198C4.77895 12.9198 4.56698 13.0076 4.4107 13.1638C4.25442 13.3201 4.16663 13.5321 4.16663 13.7531V14.5864C4.16663 14.8074 4.25442 15.0194 4.4107 15.1757C4.56698 15.332 4.77895 15.4198 4.99996 15.4198H5.83329C6.05431 15.4198 6.26627 15.332 6.42255 15.1757C6.57883 15.0194 6.66663 14.8074 6.66663 14.5864V13.7531C6.66663 13.5321 6.57883 13.3201 6.42255 13.1638C6.26627 13.0076 6.05431 12.9198 5.83329 12.9198H4.99996ZM9.16663 13.7531H8.33329V14.5864H9.16663V13.7531ZM8.33329 12.9198C8.11228 12.9198 7.90032 13.0076 7.74404 13.1638C7.58776 13.3201 7.49996 13.5321 7.49996 13.7531V14.5864C7.49996 14.8074 7.58776 15.0194 7.74404 15.1757C7.90032 15.332 8.11228 15.4198 8.33329 15.4198H9.16663C9.38764 15.4198 9.5996 15.332 9.75588 15.1757C9.91216 15.0194 9.99996 14.8074 9.99996 14.5864V13.7531C9.99996 13.5321 9.91216 13.3201 9.75588 13.1638C9.5996 13.0076 9.38764 12.9198 9.16663 12.9198H8.33329Z" fill="#636363"/>
<path fill-rule="evenodd" clip-rule="evenodd" d="M3.33333 5.83643C3.33333 5.72592 3.37723 5.61994 3.45537 5.5418C3.53351 5.46366 3.63949 5.41976 3.75 5.41976H5.83333V4.58643H3.75C3.41848 4.58643 3.10054 4.71812 2.86612 4.95254C2.6317 5.18696 2.5 5.50491 2.5 5.83643V15.8364C2.5 16.1679 2.6317 16.4859 2.86612 16.7203C3.10054 16.9547 3.41848 17.0864 3.75 17.0864H12.1896C12.0119 16.8319 11.8761 16.5506 11.7875 16.2531H3.75C3.63949 16.2531 3.53351 16.2092 3.45537 16.1311C3.37723 16.0529 3.33333 15.9469 3.33333 15.8364V5.83643ZM14.1667 12.5323C14.443 12.4927 14.7236 12.4927 15 12.5323V5.83643C15 5.50491 14.8683 5.18696 14.6339 4.95254C14.3995 4.71812 14.0815 4.58643 13.75 4.58643H12.5V5.41976H13.75C13.8605 5.41976 13.9665 5.46366 14.0446 5.5418C14.1228 5.61994 14.1667 5.72592 14.1667 5.83643V12.5323ZM6.66667 5.41976H11.0679V4.58643H6.66667V5.41976Z" fill="#636363"/>
<path fill-rule="evenodd" clip-rule="evenodd" d="M15 8.33639H3.33337V7.50305H15V8.33639Z" fill="#636363"/>
<path d="M5 3.75309C5 3.64259 5.0439 3.5366 5.12204 3.45846C5.20018 3.38032 5.30616 3.33643 5.41667 3.33643C5.52717 3.33643 5.63315 3.38032 5.71129 3.45846C5.78943 3.5366 5.83333 3.64259 5.83333 3.75309V5.83643C5.83333 5.94693 5.78943 6.05291 5.71129 6.13105C5.63315 6.20919 5.52717 6.25309 5.41667 6.25309C5.30616 6.25309 5.20018 6.20919 5.12204 6.13105C5.0439 6.05291 5 5.94693 5 5.83643V3.75309ZM10.8333 3.75309C10.8333 3.64259 10.8772 3.5366 10.9554 3.45846C11.0335 3.38032 11.1395 3.33643 11.25 3.33643C11.3605 3.33643 11.4665 3.38032 11.5446 3.45846C11.6228 3.5366 11.6667 3.64259 11.6667 3.75309V5.83643C11.6667 5.94693 11.6228 6.05291 11.5446 6.13105C11.4665 6.20919 11.3605 6.25309 11.25 6.25309C11.1395 6.25309 11.0335 6.20919 10.9554 6.13105C10.8772 6.05291 10.8333 5.94693 10.8333 5.83643V3.75309Z" fill="#636363"/>
</svg>
