<svg width="74" height="66" viewBox="0 0 74 66" fill="none" xmlns="http://www.w3.org/2000/svg">
<path d="M62.1789 17.4014H52.4169L50.0912 11.6377C49.9305 11.2433 49.6361 10.9024 49.2481 10.6615C48.8601 10.4207 48.3975 10.2916 47.9235 10.292H25.9014C24.9324 10.292 24.0639 10.8315 23.7408 11.6377L21.408 17.4014H11.6459C8.47328 17.4014 5.90356 19.6738 5.90356 22.4795V51.4248C5.90356 54.2305 8.47328 56.5029 11.6459 56.5029H62.1789C65.3516 56.5029 67.9213 54.2305 67.9213 51.4248V22.4795C67.9213 19.6738 65.3516 17.4014 62.1789 17.4014ZM36.9124 46.3467C30.5671 46.3467 25.4277 41.8018 25.4277 36.1904C25.4277 30.5791 30.5671 26.0342 36.9124 26.0342C43.2578 26.0342 48.3972 30.5791 48.3972 36.1904C48.3972 41.8018 43.2578 46.3467 36.9124 46.3467ZM30.0216 36.1904C30.0216 37.8066 30.7476 39.3566 32.0399 40.4994C33.3322 41.6422 35.0849 42.2842 36.9124 42.2842C38.74 42.2842 40.4927 41.6422 41.785 40.4994C43.0773 39.3566 43.8033 37.8066 43.8033 36.1904C43.8033 34.5743 43.0773 33.0243 41.785 31.8815C40.4927 30.7387 38.74 30.0967 36.9124 30.0967C35.0849 30.0967 33.3322 30.7387 32.0399 31.8815C30.7476 33.0243 30.0216 34.5743 30.0216 36.1904Z" fill="#ABABAB"/>
</svg>
